<svg id="backIcon" xmlns="http://www.w3.org/2000/svg" viewBox="0 0 120.376 122.736">
  <defs>
    <style>
      .dot {
        fill: #0b0b0b;
      }

      .cls-4,
      .cls-5 {
        fill: none;
        stroke: #000;
        stroke-miterlimit: 10;
        stroke-width: 4px;
      }

      .cls-5 {
        stroke-linecap: round;
      }
    </style>
  </defs>
  <title>backIcon</title>
  <circle class="cls-4" cx="61.395" cy="62.648" r="54.431" />
  <g id="Layer_3" data-name="Layer 3">
    <path id="arrow"
      d="M46,60.164c11.868,0,22.2-.025,32.535.026,1.675.008,4.3-.743,4.412,1.762.131,3.056-2.75,2.123-4.509,2.136-10.314.077-20.628.038-32.076.038,4.771,4.763,8.835,8.722,12.767,12.809,1.1,1.142,3.559,2.3,1.48,4.344-1.8,1.772-2.932-.358-3.993-1.4-5.052-4.96-9.979-10.047-15.058-14.977-1.848-1.793-2.466-3.159-.287-5.248,5.348-5.125,10.5-10.455,15.758-15.673,1.011-1,2.1-2.519,3.68-.924s.06,2.682-.949,3.68C55.553,50.893,51.3,55,46,60.164Z" />
    <g id="dots">
      <path class="dot-cls-4 dot"
        d="M71.822,98.6c2.221.974,2.061,3.3,2.469,5.244.268,1.279-.453,2.435-1.826,2.212-3.106-.506-2.377-3.462-2.959-5.441C69.132,99.338,70.317,98.653,71.822,98.6Z" />
      <path class="dot-cls-2 dot"
        d="M50.344,106.1a1.964,1.964,0,0,1-1.721-2.872c.577-1.677.1-4.217,2.7-4.534a1.775,1.775,0,0,1,1.948,2.531C52.606,102.991,53.17,105.681,50.344,106.1Z" />
      <path class="dot-cls-3 dot"
        d="M63.41,104.044c-.025,1.744.008,3.828-2.275,3.453-2.4-.4-1.61-2.759-1.7-4.422-.078-1.5.054-3.3,2.018-3.125C64.056,100.178,63.224,102.509,63.41,104.044Z" />
      <path class="dot-cls-1 dot"
        d="M43.9,96.993c-.966,1.755-1.117,4.444-3.975,4.777a1.453,1.453,0,0,1-1.537-1.964c.691-2.1,1.118-4.627,3.907-5.011C43.431,94.638,43.927,95.647,43.9,96.993Z" />
      <path class="dot-cls-5 dot"
        d="M82.041,101.741a7.063,7.063,0,0,1-3.079-5.288,1.449,1.449,0,0,1,1.882-1.638c2.555.758,3.173,3.1,3.609,5.309C84.657,101.157,83.807,101.911,82.041,101.741Z" />
    </g>
    <path class="cls-5" d="M91.273,94.455a43.8,43.8,0,1,0-59.688.022" />
  </g>
</svg>